# xmcd CD database file
#
# Track frame offsets:
#	150
#	33179
#	66174
#	96655
#	122107
#	146414
#	188293
#	216219
#	254386
#	283399
#
# Disc length: 4085 seconds
#
# Revision: 0
# Processed by: cddbd v1.5.1PL2 Copyright (c) Steve Scherf et al.
# Submitted via: CDex 1.51
#
DISCID=980ff30a
DTITLE=Jean-Pierre Zanella - Villas-Lobos Antonnio C Jobim
DYEAR=2006
DGENRE=Jazz
TTITLE0=Ouverture
TTITLE1=Veleiro
TTITLE2=Agua de Marco
TTITLE3=Melodia sentimental
TTITLE4=Bird's song
TTITLE5=Exploracao
TTITLE6=Excitement Among the Indians
TTITLE7=Modinha
TTITLE8=Dindi
TTITLE9=OlhaMaria
EXTD=YEAR: 2006
EXTT0=
EXTT1=
EXTT2=
EXTT3=
EXTT4=
EXTT5=
EXTT6=
EXTT7=
EXTT8=
EXTT9=
PLAYORDER=
